<svg xmlns="http://www.w3.org/2000/svg" width="200" height="200" viewBox="0 0 200 200"><path fill="#e6008a" d="M0 100C0 25 25 0 100 0s100 25 100 100-25 100-100 100S0 175 0 100"/><path fill="#c60077" d="M151.82 86.7a15.67 15.67 0 0 1 0 22.15l-6.64 6.65a6.27 6.27 0 0 1-8.38.32l50.26 50.6c5.52-9.41 9.12-21.07 11.07-35.33zm-20.67 33.97a6.27 6.27 0 0 1 0 8.86l-8.13 8.12a15.66 15.66 0 0 1-22.15 0l-.2-.2a13.21 13.21 0 0 0-15.75-1.57L72.44 151.3c-5.29 5.29-12.64 6.69-19.67 1.41l51.09 47.24c40-.48 65.25-8.54 79.77-28.25z"/><path fill="#fff" d="m49.55 128.42 15.7-12.75a13.19 13.19 0 0 0-2.14-15.78l.03-.03a15.66 15.66 0 0 1 .8-21.28l8.13-8.13a6.26 6.26 0 0 1 8.86 0l50.22 50.22a6.26 6.26 0 0 1 0 8.86l-8.13 8.12a15.66 15.66 0 0 1-22.15 0l-.2-.2a13.21 13.21 0 0 0-15.75-1.58l-12.48 15.44c-5.91 5.91-14.42 7-22.15-.74-7.73-7.73-6.66-16.24-.74-22.15zm65.35-78.64 36.92 36.92a15.66 15.66 0 0 1 0 22.15l-6.64 6.65a6.27 6.27 0 0 1-8.86 0L86.1 65.28a6.27 6.27 0 0 1 0-8.86l6.65-6.64a15.66 15.66 0 0 1 22.15 0z"/></svg>