<svg xmlns="http://www.w3.org/2000/svg" viewBox="0 0 22 32.001"><path d="M5.72 0C2.58 0 0 2.589 0 5.742v23.316c0 .528.031.982.181 1.463.15.482.54 1.198 1.376 1.416.836.218 1.456-.172 1.833-.482.378-.31.66-.664.955-1.095.898-1.305 2.165-2.81 3.562-3.767.536-.367 1.815-.714 3.093-.714s2.557.346 3.093.714c1.397.956 2.664 2.462 3.562 3.767.296.43.577.785.955 1.095.377.31.997.7 1.833.482.836-.218 1.225-.934 1.375-1.416.15-.481.182-.935.182-1.463V5.742C22 2.589 19.42 0 16.28 0Zm0 3.006h10.56a2.709 2.709 0 0 1 2.726 2.736v21.494c-.89-1.107-1.911-2.225-3.226-3.125-1.361-.933-3.07-1.238-4.78-1.238-1.71 0-3.419.303-4.78 1.236-1.315.9-2.336 2.02-3.226 3.127V5.742a2.709 2.709 0 0 1 2.727-2.736Z" color="#000"/></svg>