<svg xmlns="http://www.w3.org/2000/svg" xml:space="preserve" viewBox="0 0 32 32"><path d="M16.5 20a1.5 1.5 0 0 0-1.5 1.5 1.5 1.5 0 0 0 1.5 1.5h3a1.5 1.5 0 0 0 1.5-1.5 1.5 1.5 0 0 0-1.5-1.5Zm0-6a1.5 1.5 0 0 0-1.5 1.5 1.5 1.5 0 0 0 1.5 1.5h3a1.5 1.5 0 0 0 1.5-1.5 1.5 1.5 0 0 0-1.5-1.5Zm-9 6.064a1.5 1.5 0 0 0-1.5 1.5 1.5 1.5 0 0 0 1.5 1.5h3a1.5 1.5 0 0 0 1.5-1.5 1.5 1.5 0 0 0-1.5-1.5zM7.5 14A1.5 1.5 0 0 0 6 15.5 1.5 1.5 0 0 0 7.5 17h3a1.5 1.5 0 0 0 1.5-1.5 1.5 1.5 0 0 0-1.5-1.5ZM10 0a1.5 1.5 0 0 0-1.5 1.5V4h-3C2.48 4 0 6.48 0 9.5v17C0 29.52 2.48 32 5.5 32h21c3.02 0 5.5-2.48 5.5-5.5v-17C32 6.48 29.52 4 26.5 4h-3V1.5A1.5 1.5 0 0 0 22 0a1.5 1.5 0 0 0-1.5 1.5V4h-9V1.5A1.5 1.5 0 0 0 10 0ZM5.5 11h21c1.398 0 2.5 1.102 2.5 2.5v13c0 1.398-1.102 2.5-2.5 2.5h-21A2.478 2.478 0 0 1 3 26.5v-13C3 12.102 4.102 11 5.5 11Z" color="#000" style="-inkscape-stroke:none"/></svg>