<svg xmlns="http://www.w3.org/2000/svg" viewBox="0 0 32 32"><path d="M18.197.15C16.185-.126 14.5 1.58 14.5 3.5V14c0 1.915 1.585 3.5 3.5 3.5h10.5c1.92 0 3.626-1.685 3.35-3.697C30.876 6.726 25.274 1.123 18.197.15ZM9.398 1.422C3.852 3.937 0 9.53 0 16c0 8.819 7.181 16 16 16 6.441 0 12.014-3.818 14.545-9.324a1.5 1.5 0 0 0-.736-1.99 1.5 1.5 0 0 0-1.99.736C25.763 25.89 21.256 29 16 29 8.803 29 3 23.197 3 16c0-5.28 3.135-9.804 7.637-11.846a1.5 1.5 0 0 0 .748-1.986 1.5 1.5 0 0 0-1.987-.746Zm8.391 1.7c5.75.79 10.3 5.34 11.09 11.089.024.174-.09.289-.379.289H18a.479.479 0 0 1-.5-.5V3.5c0-.29.115-.403.29-.379z" color="#000" style="-inkscape-stroke:none"/></svg>