<svg xmlns="http://www.w3.org/2000/svg" xml:space="preserve" viewBox="0 0 24.998 32.004"><path d="M12.496 0C7.121 0 3.96 1.203 2.092 2.877 1.158 3.714.6 4.651.314 5.42.03 6.188 0 7.018 0 7.018v17.968s.029.83.314 1.598c.286.769.844 1.706 1.778 2.543 1.867 1.674 5.03 2.877 10.404 2.877 5.375 0 8.543-1.203 10.41-2.877.934-.837 1.488-1.774 1.774-2.543.285-.769.318-1.598.318-1.598V7.018s-.033-.83-.318-1.598c-.286-.769-.84-1.706-1.774-2.543C21.04 1.203 17.871 0 12.496 0Zm0 5.049c4.648 0 6.497 1.045 7.135 1.617.206.185.216.254.27.352-.054.097-.064.166-.27.351-.638.572-2.487 1.615-7.135 1.615S6.003 7.941 5.366 7.37c-.207-.185-.215-.254-.268-.351.053-.098.061-.167.267-.352.638-.572 2.483-1.617 7.131-1.617Zm-7.545 7.816c1.838.723 4.281 1.168 7.545 1.168 3.264 0 5.71-.445 7.549-1.168v2.947c-.028.075-.097.257-.414.542-.638.571-2.487 1.617-7.135 1.617s-6.493-1.046-7.13-1.617c-.318-.285-.387-.467-.415-.541Zm0 8.985c1.838.723 4.281 1.17 7.545 1.17 3.264 0 5.71-.447 7.549-1.17v2.949c-.028.074-.097.255-.414.539-.638.572-2.487 1.617-7.135 1.617s-6.493-1.045-7.13-1.617c-.318-.284-.387-.465-.415-.54Z" color="#000" style="-inkscape-stroke:none"/></svg>