<svg xmlns="http://www.w3.org/2000/svg" xml:space="preserve" viewBox="0 0 25 32"><path d="M12.5 0C6.78 0 3.642 1.25 1.895 2.782 1.02 3.548.527 4.378.275 5.042.022 5.706 0 6.343 0 6.343s.022.638.275 1.302c.252.664.746 1.494 1.62 2.26 1.747 1.533 4.885 2.782 10.605 2.782 5.72 0 8.858-1.25 10.605-2.782.874-.766 1.371-1.596 1.623-2.26.253-.664.272-1.302.272-1.302s-.02-.637-.272-1.301c-.252-.664-.749-1.494-1.623-2.26C21.358 1.249 18.22 0 12.5 0Zm0 3.03c5.293 0 7.662 1.165 8.668 2.047.502.44.695.818.786 1.059.092.241.075.207.075.207s.017-.033-.075.208c-.091.241-.284.618-.786 1.06-1.006.88-3.375 2.046-8.668 2.046-5.293 0-7.662-1.165-8.668-2.047-.502-.44-.695-.818-.786-1.06-.092-.24-.071-.207-.071-.207s-.021.034.07-.207c.092-.241.285-.619.787-1.06C4.838 4.197 7.207 3.03 12.5 3.03ZM0 6.343V16s.022.637.275 1.301c.252.664.746 1.494 1.62 2.26 1.747 1.533 4.885 2.782 10.605 2.782 5.72 0 8.858-1.249 10.605-2.782.874-.766 1.371-1.596 1.623-2.26C24.981 16.637 25 16 25 16V6.343h-2.971V16s.017-.034-.075.207c-.091.242-.284.619-.786 1.06-1.006.881-3.375 2.046-8.668 2.046-5.293 0-7.662-1.165-8.668-2.046-.502-.441-.695-.818-.786-1.06-.092-.24-.071-.207-.071-.207V6.343ZM0 16v9.657s.022.637.275 1.301c.252.664.746 1.494 1.62 2.26C3.642 30.751 6.78 32 12.5 32c5.72 0 8.858-1.25 10.605-2.782.874-.766 1.371-1.596 1.623-2.26.253-.664.272-1.301.272-1.301V16h-2.971v9.657s.017-.034-.075.207c-.091.241-.284.619-.786 1.06-1.006.88-3.375 2.046-8.668 2.046-5.293 0-7.662-1.165-8.668-2.047-.502-.44-.695-.818-.786-1.059-.092-.241-.071-.207-.071-.207V16Z" color="#000" style="-inkscape-stroke:none"/></svg>