<svg xmlns="http://www.w3.org/2000/svg" viewBox="0 0 32 32"><path d="M16 0a1.5 1.5 0 0 0-1.5 1.5l-.002 17.213-4.496-3.852a1.5 1.5 0 0 0-2.115.162 1.5 1.5 0 0 0 .164 2.116l7.037 6.03a1.5 1.5 0 0 0 1.951.003l7.06-6.031a1.5 1.5 0 0 0 .167-2.116 1.5 1.5 0 0 0-1.024-.521 1.5 1.5 0 0 0-1.092.355l-4.652 3.975L17.5 1.5A1.5 1.5 0 0 0 16 0ZM1.5 23.5A1.5 1.5 0 0 0 0 25v1.5C0 29.52 2.48 32 5.5 32h21c3.02 0 5.5-2.48 5.5-5.5V25a1.5 1.5 0 0 0-1.5-1.5A1.5 1.5 0 0 0 29 25v1.5c0 1.398-1.102 2.5-2.5 2.5h-21A2.478 2.478 0 0 1 3 26.5V25a1.5 1.5 0 0 0-1.5-1.5Z" color="#000" style="-inkscape-stroke:none"/></svg>