<svg xmlns="http://www.w3.org/2000/svg" xml:space="preserve" viewBox="0 0 32.007 32.001"><path d="m.007 19.574 14.304 8.94a3.2 3.2 0 0 0 3.392 0l14.304-8.94v1c0 1.245-.64 2.401-1.696 3.06l-12.608 7.88a3.2 3.2 0 0 1-3.392 0l-12.608-7.88a3.608 3.608 0 0 1-1.696-3.06Zm0-5.97 14.304 8.94a3.2 3.2 0 0 0 3.392 0l14.304-8.94v1c0 1.245-.64 2.401-1.696 3.06l-12.608 7.88a3.2 3.2 0 0 1-3.392 0l-12.608-7.88a3.608 3.608 0 0 1-1.696-3.06ZM.7 11.056l13.58 8.517c.934.586 2.453.587 3.389.002l13.635-8.52c.937-.586.937-1.535 0-2.12L17.704.439c-.937-.585-2.456-.585-3.393 0L.704 8.935c-.937.585-.939 1.534-.004 2.12z"/></svg>