<svg xmlns="http://www.w3.org/2000/svg" xml:space="preserve" viewBox="0 0 32.007 32.001"><path d="m.007 19.574 14.304 8.94a3.2 3.2 0 0 0 3.392 0l14.304-8.94v1a3.608 3.608 0 0 1-1.696 3.06l-12.608 7.88a3.2 3.2 0 0 1-3.392 0l-12.608-7.88a3.608 3.608 0 0 1-1.696-3.06Zm0-5.97 14.304 8.94a3.2 3.2 0 0 0 3.392 0l14.304-8.94v1a3.608 3.608 0 0 1-1.696 3.06l-12.608 7.88a3.2 3.2 0 0 1-3.392 0l-12.608-7.88a3.608 3.608 0 0 1-1.696-3.06ZM.7 11.056l13.58 8.517a2.395 1.497 0 0 0 3.389.002l13.635-8.52a2.398 1.498 0 0 0 0-2.12L17.704.439a2.4 1.5 0 0 0-3.393 0L.704 8.935a2.402 1.5 0 0 0-.004 2.12zm3.636-1.062 10.823-6.76a1.2.75 0 0 1 1.696 0l10.796 6.75a.026.017 0 0 1 0 .022L16.856 16.75a1.2.75 0 0 1-1.696 0z"/></svg>