<svg xmlns="http://www.w3.org/2000/svg" viewBox="0 0 32 32"><path d="M16 23.538a1.5 1.5 0 0 0 1.5-1.5l.002-17.213 4.941 4.352A1.5 1.5 0 1 0 24.394 6.9L16.913.37A1.5 1.5 0 0 0 14.96.366L7.61 6.897A1.5 1.5 0 1 0 9.56 9.18l4.943-4.475-.002 17.334a1.5 1.5 0 0 0 1.5 1.5zM1.5 21.5A1.5 1.5 0 0 0 0 23v3.5C0 29.52 2.48 32 5.5 32h21c3.02 0 5.5-2.48 5.5-5.5V23a1.5 1.5 0 0 0-3 0v3.5c0 1.398-1.102 2.5-2.5 2.5h-21A2.478 2.478 0 0 1 3 26.5V23a1.5 1.5 0 0 0-1.5-1.5Z" color="#000" style="-inkscape-stroke:none"/></svg>