<svg xmlns="http://www.w3.org/2000/svg" xml:space="preserve" viewBox="0 0 32 25"><path d="M16 0C5.63 0 .156 11.826.156 11.826c-.21.424-.21.924 0 1.348 0 0 5.474 11.834 15.844 11.834s15.842-11.834 15.842-11.834c.21-.424.21-.924 0-1.348C31.842 11.826 26.37 0 16 0zm0 6.996c2.992 0 5.45 2.481 5.45 5.504 0 3.023-2.458 5.504-5.45 5.504-2.991 0-5.45-2.481-5.45-5.504 0-3.023 2.458-5.504 5.45-5.504zm0 3.012v.002c-1.378 0-2.465 1.097-2.465 2.49 0 1.393 1.087 2.49 2.465 2.49 1.379 0 2.465-1.097 2.465-2.49 0-1.393-1.087-2.492-2.465-2.492z" style="-inkscape-stroke:none"/></svg>