<svg xmlns="http://www.w3.org/2000/svg" xml:space="preserve" viewBox="0 0 32 25"><path d="M16 6.995c-2.992 0-5.449 2.481-5.449 5.504 0 3.023 2.457 5.505 5.448 5.505 2.992 0 5.449-2.482 5.449-5.505 0-3.022-2.457-5.503-5.449-5.503zm0 3.013c1.378 0 2.465 1.099 2.465 2.492 0 1.392-1.087 2.49-2.466 2.49-1.378 0-2.465-1.098-2.465-2.49 0-1.394 1.087-2.49 2.465-2.49zM16 0C5.63 0 .156 11.826.156 11.826c-.21.424-.21.924 0 1.348 0 0 5.474 11.833 15.844 11.833s15.842-11.833 15.842-11.833c.21-.424.21-.924 0-1.348C31.842 11.826 26.37 0 16 0Zm0 3.014c7.54 0 12.046 8.317 12.686 9.486-.64 1.17-5.146 9.493-12.687 9.493-7.54 0-12.046-8.324-12.686-9.493.64-1.17 5.146-9.486 12.686-9.486z" color="#000" style="-inkscape-stroke:none"/></svg>