<svg xmlns="http://www.w3.org/2000/svg" xml:space="preserve" viewBox="0 0 32 32"><path d="M30.5 0a1.5 1.5 0 0 0-1.06.44l-29 29a1.5 1.5 0 0 0 0 2.12 1.5 1.5 0 0 0 2.12 0l29-29a1.5 1.5 0 0 0 0-2.12A1.5 1.5 0 0 0 30.5 0ZM16 3.496C5.63 3.496.156 15.322.156 15.322a1.52 1.52 0 0 0 0 1.348s1.531 3.308 4.506 6.426l2.172-2.172c-2.003-2.15-3.214-4.366-3.521-4.928.64-1.17 5.145-9.486 12.685-9.486H16c1.569 0 3.004.364 4.303.945l2.261-2.262C20.658 4.171 18.47 3.496 16 3.496Zm11.34 5.406-2.172 2.172c2.001 2.147 3.21 4.36 3.518 4.922-.64 1.17-5.147 9.494-12.688 9.494-1.569 0-3.002-.364-4.3-.945l-2.26 2.26c1.906 1.022 4.093 1.699 6.562 1.699 10.37 0 15.842-11.834 15.842-11.834a1.52 1.52 0 0 0 0-1.348s-1.53-3.304-4.502-6.42zm-11.342 1.59c-2.991.001-5.447 2.482-5.447 5.504 0 .377.039.744.111 1.1l6.479-6.479A5.35 5.35 0 0 0 16 10.492Zm5.34 4.412-6.473 6.473c.367.08.744.123 1.133.123 2.992 0 5.45-2.48 5.45-5.504 0-.373-.039-.739-.11-1.092z" color="#000" style="-inkscape-stroke:none"/></svg>