<svg xmlns="http://www.w3.org/2000/svg" xml:space="preserve" viewBox="0 0 32 32"><path d="M30.5 0a1.5 1.5 0 0 0-1.06.44l-29 29a1.5 1.5 0 0 0 0 2.12 1.5 1.5 0 0 0 2.12 0l29-29a1.5 1.5 0 0 0 0-2.12A1.5 1.5 0 0 0 30.5 0ZM16.002 3.496C5.632 3.496.158 15.322.158 15.322a1.52 1.52 0 0 0 0 1.348s1.53 3.308 4.504 6.426l6-6a5.495 5.495 0 0 1-.111-1.1c0-3.023 2.459-5.504 5.451-5.504.39 0 .77.045 1.139.125l5.423-5.424c-1.906-1.021-4.093-1.697-6.562-1.697zM27.34 8.902 21.342 14.9c.072.355.11.722.11 1.096 0 3.023-2.458 5.504-5.45 5.504-.389 0-.768-.045-1.135-.125l-5.43 5.43c1.907 1.022 4.096 1.699 6.565 1.699 10.37 0 15.842-11.834 15.842-11.834a1.52 1.52 0 0 0 0-1.348s-1.53-3.304-4.504-6.42z" color="#000" style="-inkscape-stroke:none"/></svg>