<svg xmlns="http://www.w3.org/2000/svg" xml:space="preserve" viewBox="0 0 30 32"><path d="M20.107 12.004a1.5 1.5 0 0 0-1.603 1.389l-.5 7a1.5 1.5 0 0 0 1.389 1.603 1.5 1.5 0 0 0 1.603-1.39l.5-6.999a1.5 1.5 0 0 0-1.389-1.603zm-10.214 0a1.5 1.5 0 0 0-1.39 1.603l.5 7a1.5 1.5 0 0 0 1.604 1.39 1.5 1.5 0 0 0 1.39-1.604l-.5-7a1.5 1.5 0 0 0-1.604-1.39ZM15 12a1.5 1.5 0 0 0-1.5 1.5v7A1.5 1.5 0 0 0 15 22a1.5 1.5 0 0 0 1.5-1.5v-7A1.5 1.5 0 0 0 15 12ZM14-.008c-1.75 0-3.388.878-4.357 2.334L7.752 5.17l-.22.33H1.5A1.5 1.5 0 0 0 0 7a1.5 1.5 0 0 0 1.5 1.5h.234L4.85 26.809A6.255 6.255 0 0 0 11 32h8a6.25 6.25 0 0 0 6.146-5.193l2.315-13.686.803-4.621h.236A1.5 1.5 0 0 0 30 7a1.5 1.5 0 0 0-1.223-1.47l.006-.03-.21.006A1.5 1.5 0 0 0 28.5 5.5h-6.031l-.221-.33-1.89-2.844A5.239 5.239 0 0 0 16-.008Zm0 3h2c.75 0 1.444.373 1.86.996L18.864 5.5h-7.73l1.006-1.512A2.229 2.229 0 0 1 14 2.992ZM4.777 8.5h20.44l-.713 4.113-2.317 13.694A3.216 3.216 0 0 1 19 29h-8a3.224 3.224 0 0 1-3.193-2.695Z" color="#000" style="-inkscape-stroke:none"/></svg>