<svg xmlns="http://www.w3.org/2000/svg" xml:space="preserve" viewBox="0 0 30 32"><path d="M14-.008c-1.75 0-3.388.878-4.357 2.334L7.752 5.17l-.22.33H1.5a1.5 1.5 0 0 0 0 3h.234L4.85 26.809A6.255 6.255 0 0 0 11 32h8a6.25 6.25 0 0 0 6.146-5.193l2.315-13.686.803-4.621h.236A1.5 1.5 0 0 0 30 7a1.5 1.5 0 0 0-1.223-1.47l.006-.03-.21.006A1.5 1.5 0 0 0 28.5 5.5h-6.031l-.221-.33-1.89-2.844A5.239 5.239 0 0 0 16-.008h-2zm0 3h2c.75 0 1.444.373 1.86.996L18.864 5.5h-7.73l1.006-1.512A2.229 2.229 0 0 1 14 2.992zM10.047 12a1.5 1.5 0 0 1 1.45 1.393l.5 7a1.5 1.5 0 0 1-2.993.214l-.5-7A1.5 1.5 0 0 1 10.047 12zM15 12a1.5 1.5 0 0 1 1.5 1.5v7a1.5 1.5 0 0 1-3 0v-7A1.5 1.5 0 0 1 15 12zm4.953 0a1.5 1.5 0 0 1 1.543 1.607l-.5 6.998a1.5 1.5 0 1 1-2.992-.212l.5-7A1.5 1.5 0 0 1 19.954 12z" color="#000" style="-inkscape-stroke:none"/></svg>