<svg xmlns="http://www.w3.org/2000/svg" viewBox="0 0 32 32.001"><path d="M12.205.014a1.5 1.5 0 0 0-1.691 1.281L9.52 8.5H1.5A1.5 1.5 0 0 0 0 10a1.5 1.5 0 0 0 1.5 1.5h7.605l-1.24 9H1.5A1.5 1.5 0 0 0 0 22a1.5 1.5 0 0 0 1.5 1.5h5.951l-.937 6.795a1.5 1.5 0 0 0 1.28 1.692 1.5 1.5 0 0 0 1.692-1.281l.994-7.206h8.971l-.937 6.795a1.5 1.5 0 0 0 1.28 1.692 1.5 1.5 0 0 0 1.692-1.281l.994-7.206h8.02A1.5 1.5 0 0 0 32 22a1.5 1.5 0 0 0-1.5-1.5h-7.605l1.24-9H30.5A1.5 1.5 0 0 0 32 10a1.5 1.5 0 0 0-1.5-1.5h-5.951l.937-6.794a1.5 1.5 0 0 0-1.28-1.692 1.5 1.5 0 0 0-1.692 1.281L21.52 8.5h-8.971l.937-6.794a1.5 1.5 0 0 0-1.28-1.692Zm-.07 11.486h8.97l-1.24 9h-8.97z" color="#000" style="-inkscape-stroke:none"/></svg>