<svg xmlns="http://www.w3.org/2000/svg" xml:space="preserve" viewBox="0 0 32 30"><path d="M22.258 0C19.997 0 17.799 1 16 2.666 14.15.952 11.824-.018 9.513 0 7.075.02 4.653 1.13 2.821 3.144c-3.761 4.139-3.762 10.731 0 14.87l9.363 10.302c2.04 2.245 5.591 2.245 7.632 0l9.363-10.302c3.761-4.14 3.761-10.731 0-14.87C27.299 1.074 24.777 0 22.258 0Zm0 3.01c1.691 0 3.383.735 4.716 2.202 2.665 2.933 2.666 7.8 0 10.734l-9.363 10.302c-.884.973-2.338.973-3.222 0L5.026 15.946c-2.665-2.933-2.665-7.802 0-10.734 2.662-2.93 6.77-2.93 9.431 0h.002a2.101 2.101 0 0 0 3.082 0h.002c1.333-1.467 3.023-2.201 4.715-2.201zm-6.914.13-.006.004v-.002c.001-.002.006-.001.006-.002zm1.312 0c.002.001.005 0 .006.002v.002l-.006-.004z" color="#000" style="-inkscape-stroke:none"/></svg>