<svg xmlns="http://www.w3.org/2000/svg" xml:space="preserve" viewBox="0 0 32 32"><path d="M16 6c-1.284 0-2.797.305-4.127 1.236C10.543 8.168 9.5 9.855 9.5 12a1.5 1.5 0 0 0 3 0c0-1.282.435-1.845 1.094-2.307C14.253 9.232 15.24 9 16 9c.731 0 1.726.228 2.393.69.666.461 1.107 1.02 1.107 2.31 0 2.115-.778 2.678-1.643 3.096-.865.417-1.78.404-1.78.404H14.5v3a1.5 1.5 0 0 0 3 0v-.225c.512-.1 1.058-.186 1.662-.478C20.788 17.012 22.5 15.504 22.5 12c0-2.162-1.064-3.852-2.4-4.777C18.763 6.297 17.258 6 16 6Zm-2 18a2 2 0 1 1 4 0 2 2 0 0 1-4 0zm2-24C7.181 0 0 7.181 0 16c0 8.819 7.181 16 16 16 8.819 0 16-7.181 16-16 0-8.819-7.181-16-16-16Zm0 3c7.197 0 13 5.803 13 13s-5.803 13-13 13S3 23.197 3 16 8.803 3 16 3Z" color="#000" style="-inkscape-stroke:none"/></svg>