<svg xmlns="http://www.w3.org/2000/svg" viewBox="0 0 32 32"><path d="M16 0c-1.34 0-2.67.44-3.79 1.3L2.04 9.25A5.37 5.37 0 0 0 0 13.49L.03 26.7c0 2.91 2.3 5.3 5.11 5.3h7.87v-9.08c0-1.26.95-2.25 2.17-2.25h1.64c1.21 0 2.16 1 2.16 2.25V32h7.92c2.8 0 5.1-2.4 5.1-5.3V13.48c0-1.67-.76-3.24-2.04-4.24L19.79 1.3A6.15 6.15 0 0 0 15.99 0Zm0 3.05c.7 0 1.42.24 2.02.7l10.17 7.93c.55.43.87 1.1.87 1.8V26.7c0 1.26-.95 2.24-2.16 2.24h-4.98v-6.02c0-2.91-2.3-5.3-5.1-5.3h-1.64c-2.8 0-5.11 2.39-5.11 5.3v6.02H5.14a2.2 2.2 0 0 1-2.17-2.25l-.03-13.21c0-.7.32-1.37.86-1.8l10.17-7.92c.6-.47 1.32-.7 2.03-.7z" color="#000" style="-inkscape-stroke:none"/></svg>