<svg xmlns="http://www.w3.org/2000/svg" xml:space="preserve" viewBox="0 0 32 32"><path d="M5.486 0C2.474 0 0 2.474 0 5.486v21.028C0 29.526 2.474 32 5.486 32h21.028C29.526 32 32 29.526 32 26.514V5.486C32 2.474 29.526 0 26.514 0ZM13 6.5a3.5 3.5 0 0 1 3.5 3.5 3.5 3.5 0 0 1-3.5 3.5A3.5 3.5 0 0 1 9.5 10 3.5 3.5 0 0 1 13 6.5Zm9.418 6.367c1.002.001 2.008.362 2.793 1.104l3.685 3.482v8.996a2.423 2.423 0 0 1-2.447 2.447H5.551a2.423 2.423 0 0 1-2.447-2.447v-5.375l1.755-1.894a4.927 4.927 0 0 1 6.454-.657l2.117 1.512a1.45 1.45 0 0 0 2.062-.353l3.559-5.084a4.071 4.071 0 0 1 2.937-1.71c.143-.014.287-.02.43-.02z" color="#000" style="-inkscape-stroke:none"/></svg>