<svg xmlns="http://www.w3.org/2000/svg" xml:space="preserve" viewBox="0 0 32 32"><path d="M5.486 0C2.474 0 0 2.474 0 5.486V25.05a1.5 1.5 0 0 0 0 .04v1.425C0 29.526 2.474 32 5.486 32h21.028C29.526 32 32 29.526 32 26.514V5.486C32 2.474 29.526 0 26.514 0Zm0 2.97h21.028a2.494 2.494 0 0 1 2.515 2.516v12.092l-3.818-3.607a4.074 4.074 0 0 0-3.223-1.082 4.071 4.071 0 0 0-2.937 1.709l-3.559 5.084a1.45 1.45 0 0 1-2.062.353l-2.117-1.512a4.927 4.927 0 0 0-6.453.657l-1.89 2.039V5.486a2.494 2.494 0 0 1 2.516-2.515zM13 5c-2.743 0-5 2.256-5 5s2.257 5 5 5c2.744 0 5-2.256 5-5s-2.256-5-5-5zm0 3.01c1.118 0 1.99.873 1.99 1.99s-.872 1.99-1.99 1.99A1.967 1.967 0 0 1 11.01 10c0-1.117.873-1.99 1.99-1.99zm9.29 7.834c.297-.03.609.068.86.306l5.88 5.555v4.809a2.494 2.494 0 0 1-2.516 2.515H5.486a2.494 2.494 0 0 1-2.515-2.515v-.883l4.09-4.41a1.892 1.892 0 0 1 2.51-.256l2.117 1.512c2.008 1.434 4.846.947 6.261-1.075l3.559-5.084c.199-.283.483-.444.781-.474z" color="#000" style="-inkscape-stroke:none"/></svg>