<svg xmlns="http://www.w3.org/2000/svg" viewBox="0 0 32 32"><path d="M22.831 9.445c-1.88.365-3.133 2.223-2.768 4.104l3.053 15.706c.366 1.88 2.224 3.133 4.104 2.767l1.963-.381c1.88-.366 3.133-2.224 2.768-4.104l-3.053-15.706c-.365-1.88-2.223-3.133-4.104-2.768ZM13.5 0C11.585 0 10 1.585 10 3.5v25c0 1.915 1.585 3.5 3.5 3.5h2c1.915 0 3.5-1.585 3.5-3.5v-25C19 1.585 17.415 0 15.5 0Zm-10 0C1.585 0 0 1.585 0 3.5v25C0 30.415 1.585 32 3.5 32h2C7.415 32 9 30.415 9 28.5v-25C9 1.585 7.415 0 5.5 0Z" color="#000" style="-inkscape-stroke:none"/></svg>