<svg xmlns="http://www.w3.org/2000/svg" xml:space="preserve" viewBox="0 0 32 32"><path d="M14.773 8.568a.98.98 0 0 0-.693.287L8.855 14.08a.98.98 0 0 0 0 1.387.98.98 0 0 0 1.387 0l5.225-5.225a.98.98 0 0 0 0-1.387.98.98 0 0 0-.694-.287zm1.715-6.857c-1.57 0-3.143.596-4.336 1.789L9.836 5.818a.98.98 0 0 0 0 1.385.98.98 0 0 0 1.385 0l2.318-2.316a4.154 4.154 0 0 1 5.897 0 4.154 4.154 0 0 1 0 5.896l-2.317 2.319a.98.98 0 0 0 0 1.384.98.98 0 0 0 1.385 0l2.318-2.316c2.386-2.386 2.386-6.284 0-8.67a6.11 6.11 0 0 0-4.334-1.79ZM6.51 9.549a.98.98 0 0 0-.692.287L3.5 12.152c-2.386 2.386-2.386 6.285 0 8.67 2.386 2.386 6.284 2.386 8.67 0l2.316-2.318a.98.98 0 0 0 0-1.385.98.98 0 0 0-1.384 0l-2.319 2.317a4.154 4.154 0 0 1-5.896 0 4.154 4.154 0 0 1 0-5.897l2.316-2.318a.98.98 0 0 0 0-1.385.98.98 0 0 0-.693-.287z" color="#000" style="-inkscape-stroke:none" transform="matrix(1.53114 0 0 1.53114 -2.62 -2.62)"/></svg>