<svg xmlns="http://www.w3.org/2000/svg" viewBox="0 0 26 32"><path d="M13 0C8.6 0 5 3.6 5 8v.004c.001.43-.002 1.173 0 1.506v.515c-2.788.257-5 2.624-5 5.475v11C0 29.52 2.48 32 5.5 32h15c3.02 0 5.5-2.48 5.5-5.5v-11c0-2.85-2.212-5.218-5-5.475V9.5c.003-.397.003-1.089 0-1.5 0-4.4-3.6-8-8-8Zm0 3c2.78 0 5 2.22 5 5v.01c.003.391.003 1.114 0 1.476V10H8v-.51c-.002-.284.001-1.042 0-1.494A4.977 4.977 0 0 1 13 3Zm0 13a3 3 0 0 1 3 3 3 3 0 0 1-1.5 2.59V25a1 1 0 0 1-1 1h-1a1 1 0 0 1-1-1v-3.41A3 3 0 0 1 10 19a3 3 0 0 1 3-3z"/></svg>