<svg xmlns="http://www.w3.org/2000/svg" viewBox="0 0 32 32"><path d="M16.02 0c-3.85 0-7 3.15-7 7v7c0 1.16.3 2.26.8 3.23L22.55 4.5A7.02 7.02 0 0 0 16.02 0ZM5.5 12c-.83 0-1.5.68-1.5 1.51v.5c.02 2.54.83 4.9 2.2 6.85l2.14-2.15A9.15 9.15 0 0 1 7 13.98v-.5C7 12.67 6.33 12 5.5 12Zm21 0c-.83 0-1.5.68-1.5 1.51v.43c.07 5.28-4.28 8.98-9.01 9.02-.62 0-1.23-.06-1.82-.18l-2.4 2.4c.86.34 1.78.57 2.73.68V29h-2a1.5 1.5 0 0 0 0 3h7a1.5 1.5 0 0 0 0-3h-2v-3.15c5.68-.77 10.58-5.57 10.5-11.94v-.42c0-.83-.67-1.5-1.5-1.49Zm-3.48 1.93L15.95 21h.07c3.85 0 7-3.15 7-7zM30.5 0a1.5 1.5 0 0 0-1.06.44l-29 29a1.5 1.5 0 0 0 0 2.12 1.5 1.5 0 0 0 2.12 0l29-29a1.5 1.5 0 0 0 0-2.12A1.5 1.5 0 0 0 30.5 0Z" color="#000" style="-inkscape-stroke:none"/></svg>