<svg xmlns="http://www.w3.org/2000/svg" viewBox="0 0 24.002 32"><path d="M12.002 0C5.392 0 0 5.248 0 11.684c0 2.568 1.38 5.646 3.057 8.947 1.676 3.301 3.723 6.682 5.283 9.148C9.18 31.11 10.53 32 12.002 32c1.472 0 2.82-.889 3.662-2.219 1.56-2.465 3.606-5.849 5.283-9.15 1.677-3.302 3.055-6.379 3.055-8.947 0-6.436-5.39-11.684-12-11.684Zm0 8.82a3.158 3.158 0 0 1 3.18 3.18 3.158 3.158 0 0 1-3.18 3.18A3.158 3.158 0 0 1 8.822 12a3.158 3.158 0 0 1 3.18-3.18z" color="#000" style="-inkscape-stroke:none"/></svg>