<svg xmlns="http://www.w3.org/2000/svg" xml:space="preserve" viewBox="0 0 32 32"><path d="M32 0 0 32" color="#000" style="-inkscape-stroke:none"/><g color="#000"><path d="m30.5 1.5-29 29M30.5 0a1.5 1.5 0 0 0-1.06.44l-29 29a1.5 1.5 0 0 0 0 2.12 1.5 1.5 0 0 0 2.12 0l29-29a1.5 1.5 0 0 0 0-2.12A1.5 1.5 0 0 0 30.5 0ZM5.486 0C2.474 0 0 2.474 0 5.486v21.028c0 .385.04.763.117 1.127l2.987-2.987v-3.58l1.755-1.894a4.927 4.927 0 0 1 5.037-1.319l4.895-4.894A3.5 3.5 0 0 1 13 13.5 3.5 3.5 0 0 1 9.5 10 3.5 3.5 0 0 1 13 6.5a3.5 3.5 0 0 1 3.5 3.5 3.5 3.5 0 0 1-.533 1.791L27.64.117A5.441 5.441 0 0 0 26.514 0Zm26.397 4.36-8.604 8.603c.702.15 1.373.48 1.932 1.008l3.685 3.482v8.996a2.423 2.423 0 0 1-2.447 2.447H7.346l-2.987 2.987c.364.077.742.117 1.127.117h21.028C29.526 32 32 29.526 32 26.514V5.486c0-.385-.04-.763-.117-1.127Z" style="-inkscape-stroke:none"/></g></svg>