<svg xmlns="http://www.w3.org/2000/svg" xml:space="preserve" viewBox="0 0 32 32"><path d="M30.493 0a1.5 1.5 0 0 0-1.06.44l-29 29a1.5 1.5 0 0 0 0 2.12 1.5 1.5 0 0 0 2.12 0l29-29a1.5 1.5 0 0 0 0-2.12 1.5 1.5 0 0 0-1.06-.44Zm-23.7 2c-2.635 0-4.8 2.165-4.8 4.8v18.4c0 .177.012.353.031.527L4.71 23.04v-2.602l1.535-1.656a4.311 4.311 0 0 1 3.988-1.265l3.812-3.813a3.063 3.063 0 0 1-.677.108 3.063 3.063 0 0 1-3.063-3.063 3.063 3.063 0 0 1 3.063-3.063 3.063 3.063 0 0 1 3.062 3.063 3.063 3.063 0 0 1-.107.678l9.396-9.397A4.765 4.765 0 0 0 25.192 2Zm23.169 4.273-7.184 7.184a3.51 3.51 0 0 1 1.275.768l3.223 3.046v7.872a2.12 2.12 0 0 1-2.14 2.14H8.951L6.266 29.97c.174.019.35.031.528.031h18.398c2.635 0 4.8-2.165 4.8-4.8V6.8c0-.177-.011-.353-.03-.527z" color="#000" style="-inkscape-stroke:none"/></svg>