<svg xmlns="http://www.w3.org/2000/svg" xml:space="preserve" viewBox="0 0 32 32"><path d="M30.504 0a1.5 1.5 0 0 0-1.06.44l-29 29a1.5 1.5 0 0 0 0 2.12 1.5 1.5 0 0 0 2.12 0l29-29a1.5 1.5 0 0 0 0-2.12 1.5 1.5 0 0 0-1.06-.44ZM5.49 0C2.478 0 .004 2.474.004 5.486v19.565a1.5 1.5 0 0 0 0 .039v1.426c0 .385.04.76.117 1.125l9.78-9.78a4.927 4.927 0 0 0-5.038 1.319l-1.888 2.039V5.486A2.494 2.494 0 0 1 5.49 2.971h19.301L27.645.117A5.441 5.441 0 0 0 26.518 0Zm26.397 4.36-2.854 2.853v10.365l-3.818-3.607a4.074 4.074 0 0 0-1.94-1l-10.17 10.17c1.77.478 3.743-.159 4.848-1.739l3.559-5.084a1.09 1.09 0 0 1 .781-.474c.297-.03.61.068.861.306l5.88 5.555v4.809a2.494 2.494 0 0 1-2.516 2.515H7.217l-2.854 2.854c.364.077.742.117 1.127.117h21.028c3.012 0 5.486-2.474 5.486-5.486V5.486c0-.385-.04-.763-.117-1.127zM13.004 5c-2.743 0-5 2.256-5 5 0 2.666 2.133 4.865 4.77 4.988l5.218-5.218C17.87 7.132 15.67 5 13.004 5Zm0 3.01c1.118 0 1.99.873 1.99 1.99s-.872 1.99-1.99 1.99a1.967 1.967 0 0 1-1.99-1.99c0-1.117.873-1.99 1.99-1.99z" color="#000" style="-inkscape-stroke:none"/></svg>