<svg xmlns="http://www.w3.org/2000/svg" xml:space="preserve" viewBox="0 0 32 32"><path d="M30.493 0a1.5 1.5 0 0 0-1.06.44l-29 29a1.5 1.5 0 0 0 0 2.12 1.5 1.5 0 0 0 2.12 0l29-29a1.5 1.5 0 0 0 0-2.12 1.5 1.5 0 0 0-1.06-.44Zm-23.7 2c-2.635 0-4.8 2.165-4.8 4.8v17.118a1.312 1.313 0 0 0 0 .035v1.248c0 .187.014.371.035.553l8.234-8.229a4.311 4.311 0 0 0-4.017 1.258l-1.653 1.783V6.801A2.182 2.182 0 0 1 6.794 4.6h16.404l2.564-2.563a4.756 4.756 0 0 0-.57-.037Zm23.174 4.32-2.574 2.573v8.488l-3.34-3.156a3.565 3.565 0 0 0-1.267-.729l-8.858 8.85c1.416.2 2.9-.376 3.77-1.62l3.115-4.449a.948.948 0 0 1 .682-.414h.002c.26-.026.532.06.752.268l5.144 4.861V25.2a2.182 2.182 0 0 1-2.201 2.201H8.87l-2.575 2.573c.164.017.33.027.499.027h18.398c2.635 0 4.8-2.165 4.8-4.8V6.8c0-.161-.009-.322-.025-.48zm-16.6.055c-2.4 0-4.374 1.974-4.374 4.375 0 2.18 1.63 4.003 3.726 4.32l4.97-4.965c-.317-2.099-2.14-3.73-4.321-3.73Zm0 2.633c.979 0 1.743.765 1.743 1.742s-.764 1.742-1.742 1.742a1.721 1.721 0 0 1-1.74-1.742c0-.977.762-1.742 1.74-1.742z" color="#000" style="-inkscape-stroke:none"/></svg>