<svg xmlns="http://www.w3.org/2000/svg" xml:space="preserve" viewBox="0 0 28 32"><path d="M14.008 0c-1.365 0-2.535.943-2.89 2.203-4.305 1.171-7.565 4.899-8.04 9.45-.076.727-.06 1.61-.06 2.151V18.8c0 .368-.104.728-.301 1.038L.293 23.658c-.823 1.298.193 3.147 1.729 3.147l6.035-.004C8.45 29.723 10.976 32 14.002 32c3.028 0 5.554-2.28 5.945-5.205l6.03-.004c1.536 0 2.554-1.852 1.73-3.148l-2.423-3.808a1.932 1.932 0 0 1-.302-1.036v-4.995c0-.541.015-1.424-.06-2.15-.475-4.547-3.726-8.271-8.024-9.447C16.545.945 15.373 0 14.008 0Zm2.835 26.797c-.339 1.274-1.45 2.205-2.841 2.205-1.391 0-2.503-.93-2.842-2.203z" color="#000" style="-inkscape-stroke:none"/></svg>