<svg xmlns="http://www.w3.org/2000/svg" viewBox="0 0 32 32"><path d="M22.799.014c-.9 0-1.796.338-2.473 1.015L1.852 19.525A6.333 6.333 0 0 0 0 24v4.5C0 30.415 1.585 32 3.5 32H8a6.334 6.334 0 0 0 4.475-1.852l18.502-18.474c1.355-1.354 1.357-3.595.002-4.95l-5.704-5.697A3.49 3.49 0 0 0 22.801.014h-.002zm.002 2.98a.479.479 0 0 1 .353.156l5.703 5.698a.475.475 0 0 1 0 .703L10.752 27.63l-6.383-6.383L22.447 3.15a.479.479 0 0 1 .354-.156zM3 24.121 7.879 29H3.5a.479.479 0 0 1-.5-.5v-4.379z" style="-inkscape-stroke:none"/></svg>