<svg xmlns="http://www.w3.org/2000/svg" viewBox="0 0 32 32"><path d="M22.799.014c-.899 0-1.796.338-2.473 1.015L1.852 19.525A6.333 6.333 0 0 0 0 24v4.5C0 30.415 1.585 32 3.5 32H8a6.334 6.334 0 0 0 4.475-1.852l18.502-18.474c1.355-1.354 1.357-3.596.002-4.95l-5.704-5.697A3.49 3.49 0 0 0 22.8.014Zm-.352 3.136a.479.479 0 0 1 .707 0l5.703 5.698a.475.475 0 0 1 0 .703L10.355 28.025A3.332 3.332 0 0 1 8 29H3.5a.479.479 0 0 1-.5-.5V24c0-.884.35-1.73.975-2.355z" color="#000" style="-inkscape-stroke:none"/></svg>