<svg xmlns="http://www.w3.org/2000/svg" viewBox="0 0 32 32"><path d="M15 0a3.51 3.51 0 0 0-3.48 3.41c-.43.16-.85.33-1.26.53a3.5 3.5 0 0 0-4.82.09l-1.41 1.4a3.5 3.5 0 0 0-.1 4.8c-.13.26-.25.51-.35.77H3.5A3.52 3.52 0 0 0 0 14.5v2a3.5 3.5 0 0 0 3.27 3.45c.2.6.42 1.19.7 1.76a3.51 3.51 0 0 0 .06 4.85l1.4 1.41a3.51 3.51 0 0 0 4.86.07c.4.2.8.37 1.22.52A3.52 3.52 0 0 0 15 32h2a3.51 3.51 0 0 0 3.48-3.4c.43-.16.85-.34 1.26-.54a3.5 3.5 0 0 0 4.82-.09l1.41-1.4a3.51 3.51 0 0 0 .07-4.86c.27-.57.5-1.15.69-1.76A3.5 3.5 0 0 0 32 16.5v-2c0-1.92-1.58-3.5-3.5-3.5h-.07c-.1-.26-.22-.52-.35-.77a3.5 3.5 0 0 0-.1-4.8l-1.42-1.4a3.5 3.5 0 0 0-4.8-.1c-.42-.2-.84-.38-1.28-.54A3.51 3.51 0 0 0 17 0Zm1 9.5c3.57 0 6.5 2.93 6.5 6.5s-2.93 6.5-6.5 6.5A6.52 6.52 0 0 1 9.5 16c0-3.57 2.93-6.5 6.5-6.5zm0 3a3.48 3.48 0 0 0-3.5 3.5c0 1.95 1.55 3.5 3.5 3.5s3.5-1.55 3.5-3.5-1.55-3.5-3.5-3.5z" color="#000" style="-inkscape-stroke:none"/></svg>