<svg xmlns="http://www.w3.org/2000/svg" viewBox="0 0 32 32"><path d="M14 0c-1.341 0-2.38.822-2.69 2.127-.168.713-.34 1.416-.513 2.117-.715.318-1.397.696-2.043 1.137a60.348 60.348 0 0 1-2.465-.694c-1.264-.393-2.522.074-3.195 1.24l-2 3.466c-.67 1.161-.479 2.472.498 3.392.541.51 1.071 1.017 1.6 1.526-.081.554-.184 1.107-.192 1.668v.042c.008.561.109 1.114.19 1.668-.514.51-1.026 1.022-1.553 1.508-.973.898-1.197 2.222-.524 3.389l2 3.465c.67 1.161 1.903 1.65 3.188 1.265.816-.244 1.623-.479 2.43-.709a12.94 12.94 0 0 0 2.033 1.141c.186.702.37 1.401.529 2.104C11.584 31.143 12.62 32 13.967 32h4c1.34 0 2.38-.822 2.69-2.127.165-.703.336-1.396.507-2.088a12.941 12.941 0 0 0 2.01-1.1c.85.226 1.698.454 2.531.713 1.265.395 2.524-.073 3.197-1.24l2-3.467c.67-1.161.479-2.472-.498-3.392a208.174 208.174 0 0 1-1.61-1.535c.088-.58.197-1.156.206-1.743V16c0-.59-.101-1.172-.182-1.756.51-.507 1.021-1.014 1.545-1.498.973-.898 1.197-2.222.524-3.389l-2-3.464c-.67-1.162-1.903-1.65-3.188-1.266-.823.246-1.637.483-2.451.715a12.944 12.944 0 0 0-2.059-1.139 57.862 57.862 0 0 1-.515-2.055C20.383.857 19.347 0 18 0h-4zm2 11.5a4.5 4.5 0 0 1 4.5 4.5 4.5 4.5 0 0 1-4.5 4.5 4.5 4.5 0 0 1-4.5-4.5 4.5 4.5 0 0 1 4.5-4.5z" color="#000" style="-inkscape-stroke:none"/></svg>