<svg xmlns="http://www.w3.org/2000/svg" viewBox="0 0 32 32"><path d="M16 10c-3.296 0-6 2.704-6 6s2.704 6 6 6 6-2.704 6-6-2.704-6-6-6zm0 3c1.675 0 3 1.325 3 3s-1.325 3-3 3-3-1.325-3-3 1.325-3 3-3zM14 0c-1.341 0-2.38.822-2.69 2.127-.168.713-.34 1.416-.513 2.117-.715.318-1.397.696-2.043 1.137a60.348 60.348 0 0 1-2.465-.694c-1.264-.393-2.522.074-3.195 1.24l-2 3.466c-.67 1.161-.479 2.472.498 3.392.541.51 1.071 1.017 1.6 1.526-.081.554-.184 1.107-.192 1.668v.042c.008.561.109 1.114.19 1.668-.514.51-1.026 1.022-1.553 1.508-.973.898-1.197 2.222-.524 3.389l2 3.465c.67 1.161 1.903 1.65 3.188 1.265.816-.244 1.623-.479 2.43-.709a12.94 12.94 0 0 0 2.033 1.141c.186.702.37 1.401.529 2.104C11.584 31.143 12.62 32 13.967 32h4c1.34 0 2.38-.822 2.69-2.127.165-.703.336-1.396.507-2.088a12.941 12.941 0 0 0 2.01-1.1c.85.226 1.698.454 2.531.713 1.265.395 2.524-.073 3.197-1.24l2-3.467c.67-1.161.479-2.472-.498-3.392a208.192 208.192 0 0 1-1.61-1.535c.088-.58.197-1.156.206-1.743V16c0-.59-.101-1.172-.182-1.756.51-.507 1.021-1.014 1.545-1.498.973-.898 1.197-2.222.524-3.389l-2-3.464c-.67-1.162-1.903-1.65-3.188-1.266-.823.246-1.637.483-2.451.715a12.944 12.944 0 0 0-2.059-1.139 57.86 57.86 0 0 1-.515-2.055C20.383.857 19.347 0 18 0Zm.184 3h3.61c.2.866.414 1.724.645 2.57l.206.754.734.264a10 10 0 0 1 2.79 1.54l.599.47.73-.203c.97-.27 1.93-.555 2.885-.84l1.803 3.125a65.803 65.803 0 0 0-1.993 1.933l-.566.573.164.787c.138.663.206 1.338.207 2.015-.01.681-.09 1.36-.238 2.024l-.182.814.598.584c.675.66 1.356 1.304 2.035 1.944l-1.803 3.126a67.12 67.12 0 0 0-3.02-.851l-.71-.182-.58.448A10.004 10.004 0 0 1 19.35 25.4l-.752.27-.198.775c-.216.855-.416 1.706-.617 2.555h-3.611a65.37 65.37 0 0 0-.656-2.615l-.205-.744-.725-.268a10.004 10.004 0 0 1-2.766-1.55l-.597-.475-.737.205c-.965.269-1.92.552-2.869.836l-1.803-3.125a65.84 65.84 0 0 0 2.01-1.951l.57-.579-.17-.793A9.996 9.996 0 0 1 6.003 16a9.987 9.987 0 0 1 .225-1.947l.175-.813-.595-.58a158.257 158.257 0 0 0-2.022-1.93l1.803-3.125c.985.303 1.97.579 2.953.832l.719.186.584-.46a9.997 9.997 0 0 1 2.773-1.542l.748-.271.194-.77c.218-.862.422-1.723.625-2.58Z" color="#000" style="-inkscape-stroke:none"/></svg>