<svg xmlns="http://www.w3.org/2000/svg" viewBox="0 0 32 32"><path d="M16 9.5A6.52 6.52 0 0 0 9.5 16c0 3.57 2.93 6.5 6.5 6.5s6.5-2.93 6.5-6.5-2.93-6.5-6.5-6.5zm0 3c1.95 0 3.5 1.55 3.5 3.5s-1.55 3.5-3.5 3.5a3.48 3.48 0 0 1-3.5-3.5c0-1.95 1.55-3.5 3.5-3.5zM15 0a3.51 3.51 0 0 0-3.48 3.41c-.43.16-.85.33-1.26.53a3.5 3.5 0 0 0-4.82.09l-1.41 1.4a3.5 3.5 0 0 0-.1 4.8c-.13.26-.25.51-.35.77H3.5A3.52 3.52 0 0 0 0 14.5v2a3.5 3.5 0 0 0 3.27 3.45c.2.6.42 1.19.7 1.76a3.51 3.51 0 0 0 .06 4.85l1.4 1.41a3.51 3.51 0 0 0 4.86.07c.4.2.8.37 1.22.52A3.52 3.52 0 0 0 15 32h2a3.51 3.51 0 0 0 3.48-3.4c.43-.16.85-.34 1.26-.54a3.5 3.5 0 0 0 4.82-.09l1.41-1.4a3.51 3.51 0 0 0 .07-4.86c.27-.57.5-1.15.69-1.76A3.5 3.5 0 0 0 32 16.5v-2c0-1.92-1.58-3.5-3.5-3.5h-.07c-.1-.26-.22-.52-.35-.77a3.5 3.5 0 0 0-.1-4.8l-1.42-1.4a3.5 3.5 0 0 0-4.8-.1c-.42-.2-.84-.38-1.28-.54A3.51 3.51 0 0 0 17 0Zm0 3h2c.3 0 .5.2.5.5v2.04l1.12.3c.95.24 1.86.62 2.7 1.12l1 .6 1.41-1.41c.21-.21.5-.21.7 0l1.42 1.41c.21.2.21.5 0 .7L24.42 9.7l.6 1c.43.71.78 1.47 1.02 2.25l.34 1.05h2.12c.3 0 .5.2.5.5v2c0 .3-.2.5-.5.5h-2.01l-.25 1.19a10.5 10.5 0 0 1-1.22 3.12l-.59 1 1.42 1.42c.21.21.21.5 0 .7l-1.41 1.42c-.2.21-.5.21-.7 0l-1.44-1.43-1 .6c-.85.5-1.75.9-2.7 1.15l-1.1.3v2.03c0 .3-.2.5-.5.5h-2c-.3 0-.5-.2-.5-.5v-2.07l-1.1-.3A10.5 10.5 0 0 1 10.72 25l-1-.6-1.46 1.45c-.21.21-.5.21-.7 0l-1.42-1.41c-.21-.2-.21-.5 0-.7l1.43-1.44-.6-1a10.5 10.5 0 0 1-1.22-3.12L5.5 17h-2c-.3 0-.5-.2-.5-.5v-2c0-.3.2-.5.5-.5h2.13l.33-1.04c.25-.79.6-1.54 1.02-2.25l.6-1-1.43-1.44c-.21-.21-.21-.5 0-.7l1.41-1.42c.2-.21.5-.21.7 0L9.7 7.57l1-.6c.84-.49 1.75-.87 2.69-1.11l1.12-.3V3.5c0-.3.2-.5.5-.5Z" color="#000" style="-inkscape-stroke:none"/></svg>