<svg xmlns="http://www.w3.org/2000/svg" viewBox="0 0 28 32"><path d="M20 0c-2.744 0-5 2.259-5 5.006 0 .508.078 1 .22 1.462l-7.138 5.585A4.962 4.962 0 0 0 5 10.976c-2.744 0-5 2.259-5 5.005 0 2.747 2.256 5.006 5 5.006a4.963 4.963 0 0 0 3.076-1.071l7.15 5.594c-.147.47-.226.969-.226 1.484C15 29.741 17.256 32 20 32s5-2.259 5-5.006c0-2.747-2.256-5.006-5-5.006a4.961 4.961 0 0 0-3.055 1.056l-7.164-5.606a4.95 4.95 0 0 0 .002-2.904l7.147-5.59A4.962 4.962 0 0 0 20 10.012c2.744 0 5-2.26 5-5.006C25 2.259 22.744 0 20 0Z" color="#000" style="-inkscape-stroke:none"/></svg>