<svg xmlns="http://www.w3.org/2000/svg" xml:space="preserve" viewBox="0 0 32 32"><path d="M17.249 8.5a1.5 1.5 0 0 0-1.07 2.557l3.413 3.443H1.5a1.5 1.5 0 0 0 0 3h18.016l-3.35 3.455a1.5 1.5 0 1 0 2.153 2.09l5.514-5.689a2.04 2.04 0 0 0-.016-2.856l-5.51-5.557A1.5 1.5 0 0 0 17.25 8.5ZM26.373.395 11.846 1.812A3.725 3.725 0 0 0 8.5 5.5V8A1.5 1.5 0 0 0 10 9.5 1.5 1.5 0 0 0 11.5 8V5.5c0-.376.263-.665.637-.701L26.664 3.38A2.103 2.103 0 0 1 29 5.5v21a2.103 2.103 0 0 1-2.336 2.12L12.137 27.2a.687.687 0 0 1-.637-.701V24a1.5 1.5 0 0 0-1.5-1.5A1.5 1.5 0 0 0 8.5 24v2.5a3.725 3.725 0 0 0 3.346 3.688l14.527 1.416C29.364 31.895 32 29.505 32 26.5v-21C32 2.495 29.364.103 26.373.395Z" color="#000" style="-inkscape-stroke:none"/></svg>