<svg xmlns="http://www.w3.org/2000/svg" xml:space="preserve" viewBox="0 0 32 32"><path d="M14.752 23.5a1.5 1.5 0 0 0 1.07-2.558L12.409 17.5h18.093a1.5 1.5 0 0 0 0-3H12.485l3.35-3.455a1.5 1.5 0 1 0-2.153-2.09l-5.515 5.69a2.04 2.04 0 0 0 .016 2.855l5.51 5.557a1.5 1.5 0 0 0 1.058.443zm-9.125 8.104 14.528-1.417a3.725 3.725 0 0 0 3.346-3.688V24a1.5 1.5 0 0 0-1.5-1.5 1.5 1.5 0 0 0-1.5 1.5v2.5a.686.686 0 0 1-.637.701L5.336 28.62A2.103 2.103 0 0 1 3 26.5v-21a2.103 2.103 0 0 1 2.336-2.12L19.864 4.8a.687.687 0 0 1 .637.7V8a1.5 1.5 0 0 0 1.5 1.5 1.5 1.5 0 0 0 1.5-1.5V5.5a3.725 3.725 0 0 0-3.346-3.689L5.627.395C2.637.105 0 2.495 0 5.5v21c0 3.005 2.636 5.397 5.627 5.105z" color="#000" style="-inkscape-stroke:none"/></svg>