<svg xmlns="http://www.w3.org/2000/svg" viewBox="0 0 32 32"><path d="m13.998 1.257-3.721 7.73a.139.139 0 0 1-.111.081l-8.23 1.2c-1.802.26-2.59 2.753-1.296 4.084l5.904 6.08a.158.158 0 0 1 .044.14l-1.462 8.514c-.319 1.866 1.73 3.524 3.345 2.653l7.366-4.072a.15.15 0 0 1 .144 0l7.322 4.072c1.605.892 3.663-.645 3.367-2.515l-1.352-8.526a.16.16 0 0 1 .045-.138l5.98-6c1.312-1.314.537-3.823-1.262-4.107l-8.207-1.304a.139.139 0 0 1-.111-.08L18.14 1.291c-.795-1.705-3.327-1.729-4.143-.035zm2.05 2.562 3.079 6.588c.443.95 1.3 1.606 2.304 1.765l6.956 1.107-5.062 5.065a3.323 3.323 0 0 0-.909 2.85l1.141 7.223-6.191-3.45a2.995 2.995 0 0 0-2.88-.023L8.25 28.313l1.23-7.211a3.303 3.303 0 0 0-.876-2.85l-5.006-5.146 6.967-1.003a3.102 3.102 0 0 0 2.337-1.743z" color="#000" style="-inkscape-stroke:none"/></svg>