<svg xmlns="http://www.w3.org/2000/svg" viewBox="0 0 32 32"><path d="M11 29.5a4.9 4.9 0 0 0 4.16-2.55L21 16.9V3.5C21 1.58 19.42 0 17.5 0H5.26a3.8 3.8 0 0 0-3.75 3.3L.02 14.82a3.29 3.29 0 0 0 3.24 3.68h5.6l-2.59 7.1A2.94 2.94 0 0 0 9 29.5zm0-3H9.14l2.6-7.1A2.94 2.94 0 0 0 9 15.5H3.26c-.19 0-.29-.11-.26-.3L4.5 3.68A.76.76 0 0 1 5.25 3H17.5c.3 0 .5.2.5.5v12.6l-5.43 9.34c-.4.7-.97 1.06-1.57 1.06zM28.5 18a3.52 3.52 0 0 0 3.5-3.5v-11C32 1.58 30.42 0 28.5 0h-2A3.52 3.52 0 0 0 23 3.5v11c0 1.92 1.58 3.5 3.5 3.5zm0-3h-2c-.3 0-.5-.2-.5-.5v-11c0-.3.2-.5.5-.5h2c.3 0 .5.2.5.5v11c0 .3-.2.5-.5.5z" color="#000" style="-inkscape-stroke:none"/></svg>