<svg xmlns="http://www.w3.org/2000/svg" viewBox="0 0 32 29.5"><path d="M21 0a4.9 4.9 0 0 0-4.16 2.55L11 12.6V26c0 1.92 1.58 3.5 3.5 3.5h12.24a3.8 3.8 0 0 0 3.75-3.3l1.49-11.52A3.29 3.29 0 0 0 28.74 11h-5.6l2.59-7.1A2.94 2.94 0 0 0 23 0Zm0 3h1.86l-2.59 7.1A2.94 2.94 0 0 0 23 14h5.74c.19 0 .29.11.26.3l-1.49 11.52a.76.76 0 0 1-.77.68H14.5c-.3 0-.5-.2-.5-.5V13.4l5.43-9.34C19.83 3.36 20.4 3 21 3ZM3.5 11.5A3.52 3.52 0 0 0 0 15v11c0 1.92 1.58 3.5 3.5 3.5h2C7.42 29.5 9 27.92 9 26V15c0-1.92-1.58-3.5-3.5-3.5Zm0 3h2c.3 0 .5.2.5.5v11c0 .3-.2.5-.5.5h-2c-.3 0-.5-.2-.5-.5V15c0-.3.2-.5.5-.5z" color="#000" style="-inkscape-stroke:none"/></svg>