<svg xmlns="http://www.w3.org/2000/svg" xml:space="preserve" viewBox="0 0 26 32"><path d="M13 0C8.875 0 5.5 3.374 5.5 7.5c0 4.125 3.375 7.5 7.5 7.5s7.5-3.375 7.5-7.5C20.5 3.374 17.125 0 13 0Zm0 2.812A4.666 4.666 0 0 1 17.688 7.5 4.666 4.666 0 0 1 13 12.187 4.666 4.666 0 0 1 8.312 7.5 4.666 4.666 0 0 1 13 2.812zM3.473 17C1.572 16.999 0 18.548 0 20.419v1.402C0 27.425 4.648 32 10.342 32h5.314C21.35 32 26 27.425 26 21.82V20.42c0-1.871-1.574-3.42-3.475-3.42zm0 2.976h19.052c.267 0 .45.181.45.444v1.402c0 3.995-3.259 7.203-7.319 7.203h-5.314c-4.06 0-7.319-3.208-7.319-7.203v-1.402c0-.263.183-.444.45-.444z" color="#000" style="-inkscape-stroke:none"/></svg>