<svg xmlns="http://www.w3.org/2000/svg" viewBox="0 0 32 32"><path d="m25.455.438-16.04 15.96a1.5 1.5 0 0 0-.435.909l-.472 4.523a1.5 1.5 0 0 0 1.67 1.645l4.465-.53a1.5 1.5 0 0 0 .882-.427l16.02-15.985a1.5 1.5 0 0 0 .002-2.12L27.574.438a1.5 1.5 0 0 0-2.119-.002ZM5.5 0C2.48 0 0 2.48 0 5.5v21C0 29.52 2.48 32 5.5 32h21c3.02 0 5.5-2.48 5.5-5.5V15a1.5 1.5 0 0 0-3 0v11.5c0 1.398-1.102 2.5-2.5 2.5h-21A2.478 2.478 0 0 1 3 26.5v-21C3 4.102 4.102 3 5.5 3H16a1.5 1.5 0 0 0 0-3Z" color="#000" style="-inkscape-stroke:none"/></svg>