<svg xmlns="http://www.w3.org/2000/svg" viewBox="0 0 32 32"><path d="M23.5 0C21.032 0 19 2.032 19 4.5v23c0 2.468 2.032 4.5 4.5 4.5h4c2.468 0 4.5-2.032 4.5-4.5v-23C32 2.032 29.968 0 27.5 0Zm0 3h4c.846 0 1.5.654 1.5 1.5v23c0 .846-.654 1.5-1.5 1.5h-4c-.846 0-1.5-.654-1.5-1.5v-23c0-.846.654-1.5 1.5-1.5Zm-19-3C2.032 0 0 2.032 0 4.5v23C0 29.968 2.032 32 4.5 32h4c2.468 0 4.5-2.032 4.5-4.5v-23C13 2.032 10.968 0 8.5 0Zm0 3h4c.846 0 1.5.654 1.5 1.5v23c0 .846-.654 1.5-1.5 1.5h-4c-.846 0-1.5-.654-1.5-1.5v-23C3 3.654 3.654 3 4.5 3Z" color="#000" style="-inkscape-stroke:none"/></svg>