<svg xmlns="http://www.w3.org/2000/svg" xmlns:xlink="http://www.w3.org/1999/xlink" viewBox="0 0 200 200"><defs><path id="reuse-0" fill="#e33223" d="M0 100C0 25 25 0 100 0s100 25 100 100-25 100-100 100S0 175 0 100"/></defs><defs><clipPath id="b"><use xlink:href="#reuse-0"/></clipPath><clipPath id="a"><path d="M0 0h200v200H0z"/></clipPath></defs><g clip-path="url(#a)"><use xlink:href="#reuse-0"/><g clip-path="url(#b)"><path fill="#c8281a" d="M76.688 164.793s36.795-21.215 50.643-49.32 7.474-61.146 7.474-61.146l101.747 99.827v83.863l-55.389-.003Z"/><path fill="#fff" d="M87.703 146.442a53.427 53.427 0 0 1-36.668-30.717l-.018-.043-.043-.1-.044-.1-.016-.04a52.9 52.9 0 0 1-4.249-20.717V94.187a52.965 52.965 0 0 1 4.189-20.385 53.132 53.132 0 0 1 10.643-16.146q.733-.764 1.495-1.5a53.071 53.071 0 0 1 14.556-9.983q1.876-.871 3.825-1.6l.1-.037.027-.01a52.773 52.773 0 0 1 14.858-3.168h.123a53.969 53.969 0 0 1 3.495-.113q1.572 0 3.123.09a52.765 52.765 0 0 1 16.86 3.782l.029.011.077.032.109.045.012.005a53.325 53.325 0 0 1 33.1 49.346s4.616 65.894-76.812 70.2c.001.002 10.743-6.221 11.229-18.314Z"/></g></g></svg>