<svg xmlns="http://www.w3.org/2000/svg" xmlns:xlink="http://www.w3.org/1999/xlink" viewBox="0 0 200 200"><defs><path id="reuse-0" fill="#00c17f" d="M0 100C0 25 25 0 100 0s100 25 100 100-25 100-100 100S0 175 0 100"/></defs><defs><clipPath id="b"><use xlink:href="#reuse-0"/></clipPath><clipPath id="a"><path d="M0 0h200v200H0z"/></clipPath></defs><g clip-path="url(#a)"><use xlink:href="#reuse-0"/><g clip-path="url(#b)"><path fill="#009a65" d="m76.9 165.765 79.112 79.112 86.488-82.841-119.709-128.4 8.177 38.378-21.23-29.958-42.958 92.16"/><path fill="#fff" d="M77.213 165.765s-13.274-46.521 19.3-75.647 16.909-49.485 2.502-55.122S48.592 37.19 53.29 94.19s23.923 71.575 23.923 71.575Z"/><path fill="#fff" d="M122.787 33.464s13.275 46.521-19.293 75.647-16.912 49.484-2.506 55.121 50.42-2.192 45.722-59.192-23.923-71.576-23.923-71.576Z"/></g></g></svg>